Coordinates
version=1
nRows=19
nColumns=36
inDegrees=yes

Units are S.I. units (second, meters, Newtons, ...)
If the header above contains a line with 'inDegrees', this indicates whether rotational values are in degrees (yes) or radians (no).

endheader
time	pelvis_tilt	pelvis_list	pelvis_rotation	pelvis_tx	pelvis_ty	pelvis_tz	hip_flexion_r	hip_adduction_r	hip_rotation_r	knee_angle_r	knee_angle_r_beta	ankle_angle_r	subtalar_angle_r	mtp_angle_r	hip_flexion_l	hip_adduction_l	hip_rotation_l	knee_angle_l	knee_angle_l_beta	ankle_angle_l	subtalar_angle_l	mtp_angle_l	lumbar_extension	lumbar_bending	lumbar_rotation	arm_flex_r	arm_add_r	arm_rot_r	elbow_flex_r	pro_sup_r	arm_flex_l	arm_add_l	arm_rot_l	elbow_flex_l	pro_sup_l
      2.45000000	    -13.86624636	     -0.50904778	      3.92350670	      0.47510724	      0.66851089	     -0.02561166	     67.92596563	    -28.51301170	     -2.34831599	     89.21926049	      1.55716985	     45.35951941	     23.11813809	     -7.49999987	     63.74123890	    -27.66213420	     -9.37746545	     88.45595053	      1.54384758	     42.01734000	     18.53447285	     -7.49999987	    -13.74747722	      0.57492305	     -8.94826857	     94.09963555	     23.72984614	     82.20146714	    122.41058033	    100.49284385	     84.95506372	      0.94960858	     69.74119787	    116.57447397	     83.34592769
      2.46666670	    -13.83414585	     -0.67334131	      4.10794765	      0.47412786	      0.66219932	     -0.02553516	     68.63286340	    -28.76176339	     -2.24826579	     90.37515754	      1.57734406	     45.84782359	     23.06880758	     -7.49999987	     64.81843006	    -28.15883437	     -8.97315800	     89.91397179	      1.56929485	     41.60898021	     17.97431348	     -7.49999987	    -14.30120445	      1.15219805	     -8.35772605	     94.81250378	     20.96977594	     80.65393525	    122.55913125	     92.78229236	     85.27756587	      1.40134636	     69.32245549	    116.91648978	     80.48160925
      2.48333330	    -13.51938565	     -0.63617326	      4.24218655	      0.46810040	      0.65530680	     -0.02257869	     69.61399057	    -28.83926218	     -1.59836499	     91.83908739	      1.60289446	     45.95970191	     22.68820609	     -7.49999987	     65.71070512	    -28.25034921	     -8.32954612	     91.31792653	      1.59379848	     41.41610219	     17.39327260	     -7.49999987	    -15.44329950	      1.03591913	     -8.17399812	     94.94274514	     21.11649533	     80.51917281	    122.28763332	     93.09060388	     86.06650506	      1.81230380	     68.99039315	    116.59064631	     80.60015034
      2.50000000	    -13.03966038	     -0.47719397	      4.41386286	      0.47342554	      0.65597837	     -0.02545177	     69.45227917	    -29.00322222	     -1.09725940	     92.44930467	      1.61354476	     45.90708330	     21.95191860	     -7.49999987	     65.45689281	    -28.41733941	     -8.49743221	     92.07197701	      1.60695915	     41.15349265	     16.96034726	     -7.49999987	    -16.44972565	      1.14357556	     -7.99326719	     94.81790274	     21.47142907	     82.02889850	    121.88580054	     93.73956041	     85.85081595	      1.89044171	     69.50460289	    116.40090067	     80.87768375
      2.51666670	    -12.63590765	     -0.44269498	      4.32730840	      0.47326808	      0.65000880	     -0.02527550	     69.51665094	    -29.07834121	     -0.76681386	     93.15989738	      1.62594694	     46.09041585	     22.05447489	     -7.49999987	     65.54950396	    -28.73607568	     -8.33514486	     93.18038130	      1.62630445	     40.94576589	     15.78723615	     -7.49999987	    -17.44764453	      1.29504156	     -7.88400895	     95.37722179	     21.94297171	     82.50655146	    121.78882729	     99.48467735	     85.71889656	      1.73603109	     70.41714255	    116.07866754	     84.25427353
      2.53333330	    -12.32285991	     -0.47087985	      4.21738852	      0.47258330	      0.64066303	     -0.02526149	     70.08413680	    -29.21383437	     -0.20134274	     94.40626310	      1.64770013	     46.44835032	     22.10151909	     -7.49999987	     66.13194269	    -29.22869432	     -7.98319404	     94.66935516	      1.65229195	     41.10029083	     15.15311470	     -7.49999987	    -17.97708559	      1.38580481	     -8.18604065	     95.33468052	     23.07939425	     83.38457702	    121.95037274	     96.96414612	     85.61247963	      1.50206837	     70.69416777	    116.98264184	     83.43222829
      2.55000000	    -12.82081528	     -0.49492801	      4.35585384	      0.47278453	      0.62483333	     -0.02535199	     71.90631015	    -29.69150818	      0.58771679	     96.42308421	      1.68290029	     47.37563818	     22.25280455	     -7.49999987	     68.18359723	    -29.53242471	     -7.25203201	     96.83078706	      1.69001605	     41.55433493	     14.62448696	     -7.49999987	    -17.97345720	      1.68440292	     -7.82331937	     95.94901137	     20.07097194	     79.71950792	    123.48615511	     95.62845624	     86.48702356	      1.91476759	     70.08316810	    118.45699784	     82.35514148
      2.56666670	    -13.05377792	     -0.58607477	      4.55184692	      0.46690823	      0.61764372	     -0.02244192	     73.63253863	    -29.70336497	      1.33802116	     98.30158909	      1.71568639	     47.92797655	     21.98619719	     -7.49999987	     70.37972547	    -29.60656686	     -6.15648957	     98.87166218	      1.72563604	     41.03902341	     13.13253519	     -7.49999987	    -18.26250304	      1.73243429	     -7.21293666	     96.58609291	     20.05343283	     79.19118816	    123.10488093	     96.07089564	     87.58814617	      3.32275437	     69.44044367	    119.64990477	     82.66763798
      2.58333330	    -13.26921378	     -0.61962716	      4.80506989	      0.47275438	      0.61519372	     -0.02526051	     74.65503732	    -29.93051174	      1.92816202	     99.72341675	      1.74050196	     48.29679501	     21.76596322	     -7.49999987	     71.83245268	    -29.48611937	     -5.49414919	    100.33951774	      1.75125495	     40.66059583	     12.58865620	     -7.49999987	    -18.29848911	      2.01028272	     -6.97922040	     97.24548508	     21.04172828	     80.65743927	    123.06668151	     96.49032738	     88.12013484	      3.91997609	     70.17888510	    120.68232024	     83.00562388
      2.60000000	    -13.21418589	     -0.50009126	      4.90920268	      0.47196306	      0.60922078	     -0.02487412	     75.45096837	    -30.17434932	      2.59204919	    100.88026326	      1.76069274	     48.39000703	     21.89877833	     -7.49999987	     72.55649249	    -29.44114088	     -5.09104992	    101.45508256	      1.77072523	     40.75157946	     12.12195532	     -7.49999987	    -18.38154494	      2.09895278	     -6.77713449	     97.16745014	     22.04669220	     81.86313241	    122.37916150	     98.58337315	     87.96345389	      3.53342474	     71.76216158	    119.78325555	     85.69712913
      2.61666670	    -13.12858065	     -0.52851955	      4.82651492	      0.47152293	      0.60884648	     -0.02475635	     75.81753831	    -30.00935379	      2.84928758	    101.31181857	      1.76822481	     48.42059191	     22.15683423	     -7.49999987	     72.87590997	    -29.53125158	     -4.85779231	    101.99644929	      1.78017387	     40.49031022	     11.58345517	     -7.49999987	    -18.71794856	      2.31852287	     -6.52656152	     96.86636282	     21.90429396	     83.29246794	    122.45343092	     88.90320585	     87.49361756	      3.22021153	     72.66631395	    119.07835488	     80.95579166
      2.63333330	    -12.56737720	     -0.46649557	      4.87361671	      0.47080290	      0.60598322	     -0.02366980	     75.98207772	    -30.16682496	      3.23456043	    102.12968780	      1.78249932	     48.34600136	     22.68494456	     -7.49999987	     72.48157519	    -29.54712882	     -4.58524181	    102.27986712	      1.78512044	     40.21664263	     11.15848410	     -7.49999987	    -19.79732902	      2.26032609	     -6.38754867	     96.63162551	     22.39838409	     83.36665622	    122.31670270	     98.75703606	     87.44738245	      3.17878485	     72.03981090	    118.52769831	     85.22911575
      2.65000000	    -12.43481934	     -0.44770233	      4.85917473	      0.47582184	      0.60399042	     -0.02057345	     76.05903420	    -30.16937322	      3.38959222	    102.70985953	      1.79262522	     48.29142757	     22.88221758	     -7.49999987	     72.63072359	    -29.74908557	     -4.27434223	    102.74548286	      1.79324697	     40.14421965	     11.13502596	     -7.49999987	    -20.47106152	      2.10610648	     -6.12681308	     96.08422124	     22.60530642	     83.59537634	    122.42814835	     98.77811845	     87.12848967	      2.92485492	     71.78912916	    118.43909137	     85.21178232
      2.66666670	    -12.27908295	     -0.73090516	      4.60006516	      0.47506367	      0.59501699	     -0.02073274	     76.27355285	    -29.98214144	      3.32805724	    103.65189515	      1.80906685	     48.52093475	     23.30587589	     -7.49999987	     73.23543694	    -30.45159385	     -3.55920116	    103.77763884	      1.81126149	     39.81303861	     10.29075645	     -7.49999987	    -20.85313711	      2.46093102	     -5.70456272	     95.78706775	     22.61291837	     83.37556470	    122.22792863	     98.95097149	     86.39106536	      3.30030302	     69.90062484	    120.06443408	     84.39567739
      2.68333330	    -12.28921886	     -0.77723357	      4.51018377	      0.46890359	      0.59015965	     -0.02387488	     77.25401324	    -29.86964674	      3.92367643	    104.55877076	      1.82489481	     48.56116476	     23.09199666	     -7.49999987	     74.20530570	    -30.56068773	     -3.12537469	    104.78711679	      1.82888020	     39.79576552	      9.96584914	     -7.49999987	    -21.33935786	      2.53309380	     -5.27365914	     96.34164242	     23.55922635	     84.21717470	    122.06459043	     99.06153639	     87.13378333	      3.96834733	     70.20119286	    119.92145043	     84.46469983
      2.70000000	    -12.69366432	     -0.90573520	      4.61931250	      0.46896848	      0.58351953	     -0.02362772	     78.78160956	    -29.97236340	      4.56874496	    105.47849924	      1.84094710	     48.60662578	     22.91575771	     -7.49999987	     75.69644526	    -30.50686032	     -2.29750425	    105.82072300	      1.84692003	     40.38433515	     10.64697263	     -7.49999987	    -21.25218262	      2.77104959	     -4.87435111	     97.35647522	     23.86669863	     85.58952288	    121.62414447	     93.59925577	     87.12521540	      4.16253528	     70.98338446	    119.53525595	     82.80962291
      2.71666670	    -13.22027402	     -1.11436241	      4.80801328	      0.46951410	      0.57696387	     -0.02376604	     80.28941694	    -30.19569299	      5.07601091	    106.44556161	      1.85782552	     48.66512269	     22.85932979	     -7.49999987	     77.41884107	    -30.44664438	     -1.42528288	    106.89607003	      1.86568838	     41.16643354	     12.01690358	     -7.49999987	    -21.13417461	      3.05570289	     -4.65023417	     98.35266625	     22.58589714	     85.25356116	    121.91327368	     90.45640863	     86.84033966	      4.60396711	     71.11673969	    119.57653464	     81.48407345
      2.73333330	    -13.86366648	     -1.25563027	      4.97231900	      0.46991943	      0.57058149	     -0.02451354	     81.78977520	    -30.22392805	      5.72574905	    107.41460464	      1.87473852	     48.77184020	     22.66060852	     -7.49999987	     79.09854881	    -30.35854044	     -0.79268085	    107.97339168	      1.88449119	     41.36469605	     12.43162578	     -7.49999987	    -20.81318903	      3.13350556	     -4.52929527	     98.49850753	     20.88326982	     83.44225794	    122.94496920	     99.56972269	     86.67465869	      5.56602545	     71.11092475	    119.58925270	     85.10070432
      2.75000000	    -14.25774261	     -1.20765338	      5.06280426	      0.46959439	      0.57020336	     -0.02376616	     82.69085792	    -30.15640389	      6.23750476	    107.92413627	      1.88363152	     48.76523829	     22.51766999	     -7.49999987	     79.94330649	    -30.30831933	     -0.71804681	    108.43008762	      1.89246204	     41.39338127	     13.00653488	     -7.49999987	    -20.82795812	      2.90372820	     -4.50654769	     98.12184608	     19.95217266	     82.40193440	    124.02398719	     99.47402473	     86.35399671	      6.28983271	     70.37406995	    119.95370784	     85.18225137
